<svg width="1301" height="375" viewBox="0 0 1301 375" fill="none" xmlns="http://www.w3.org/2000/svg">
<path d="M550.7 335.6C543.5 335.6 536.9 335 530.9 333.8C525.1 332.6 520.4 331.4 516.8 330.2C513.4 328.8 511.3 327.9 510.5 327.5L508.7 324.2C509.5 319 510.2 312.8 510.8 305.6C511.6 298.4 512.2 291.5 512.6 284.9L529.7 283.1C530.1 303.3 538.9 313.4 556.1 313.4C561.7 313.4 566.4 312.2 570.2 309.8C574 307.2 575.9 304 575.9 300.2C575.9 296.2 573.9 292.6 569.9 289.4C566.1 286.2 558.2 281.8 546.2 276.2C534.2 270.6 525.4 264.7 519.8 258.5C514.4 252.1 511.7 244.6 511.7 236C511.7 227 514.3 219 519.5 212C524.9 205 532.3 199.6 541.7 195.8C551.3 191.8 562.1 189.8 574.1 189.8C579.9 189.8 585.3 190.2 590.3 191C595.3 191.8 599.2 192.7 602 193.7C605 194.5 606.9 195 607.7 195.2L609.5 198.5C609.1 200.7 608.2 205.7 606.8 213.5C605.6 221.1 604.6 229.1 603.8 237.5L586.7 238.4L587 233.3C586.8 226.3 585 221.2 581.6 218C578.4 214.6 573.3 212.9 566.3 212.9C561.1 212.9 556.7 214.1 553.1 216.5C549.7 218.9 548 222 548 225.8C548 229.6 549.6 233.1 552.8 236.3C556 239.5 561.2 242.8 568.4 246.2C580.2 251.8 589.2 256.8 595.4 261.2C601.8 265.6 606.2 270.1 608.6 274.7C611.2 279.1 612.5 284.4 612.5 290.6C612.5 298.8 609.7 306.4 604.1 313.4C598.7 320.2 591.3 325.6 581.9 329.6C572.5 333.6 562.1 335.6 550.7 335.6ZM693.554 335.6C680.954 335.6 669.854 332.8 660.254 327.2C650.654 321.4 643.254 313.3 638.054 302.9C632.854 292.5 630.254 280.5 630.254 266.9C630.254 251.7 633.254 238.3 639.254 226.7C645.454 215.1 654.054 206.1 665.054 199.7C676.054 193.1 688.654 189.8 702.854 189.8C722.254 189.8 737.554 196 748.754 208.4C760.154 220.6 765.854 237.3 765.854 258.5C765.854 273.7 762.854 287.1 756.854 298.7C750.854 310.3 742.354 319.4 731.354 326C720.354 332.4 707.754 335.6 693.554 335.6ZM699.854 312.5C716.854 312.5 725.354 299.1 725.354 272.3C725.354 253.5 722.754 239.4 717.554 230C712.554 220.4 705.254 215.6 695.654 215.6C687.254 215.6 680.854 219 676.454 225.8C672.254 232.6 670.154 242.6 670.154 255.8C670.154 274.6 672.654 288.8 677.654 298.4C682.854 307.8 690.254 312.5 699.854 312.5ZM892.733 313.1C891.333 314.3 888.133 316.7 883.133 320.3C878.133 323.9 872.233 327.4 865.433 330.8C858.833 334 852.833 335.6 847.433 335.6C826.833 335.6 810.633 329.4 798.833 317C787.033 304.6 781.133 287.7 781.133 266.3C781.133 251.5 784.233 238.3 790.433 226.7C796.633 215.1 805.233 206.1 816.233 199.7C827.433 193.1 840.133 189.8 854.333 189.8C860.933 189.8 867.033 190.3 872.633 191.3C878.433 192.1 882.933 193 886.133 194C889.533 195 891.633 195.7 892.433 196.1L893.633 198.8C893.433 200 892.833 202.8 891.833 207.2C891.033 211.4 890.133 217 889.133 224C888.133 230.8 887.433 237.9 887.033 245.3L867.533 246.5V236.6C867.533 229.8 865.833 224.6 862.433 221C859.233 217.2 854.733 215.3 848.933 215.3C839.733 215.3 832.733 218.7 827.933 225.5C823.133 232.3 820.733 242.1 820.733 254.9C820.733 271.3 823.533 283.8 829.133 292.4C834.933 301 843.133 305.3 853.733 305.3C858.533 305.3 863.333 304.7 868.133 303.5C872.933 302.1 876.833 300.7 879.833 299.3C882.833 297.9 884.733 297 885.533 296.6L887.933 297.5L892.733 313.1ZM947.825 159.8C941.025 159.8 935.725 157.9 931.925 154.1C928.325 150.3 926.525 145 926.525 138.2C926.525 131 928.725 125.2 933.125 120.8C937.525 116.4 943.325 114.2 950.525 114.2C956.925 114.2 962.025 116.1 965.825 119.9C969.625 123.7 971.525 129 971.525 135.8C971.525 143 969.325 148.8 964.925 153.2C960.525 157.6 954.825 159.8 947.825 159.8ZM913.325 316.1C919.325 315.1 923.625 313.1 926.225 310.1C929.025 307.1 930.425 302.9 930.425 297.5V233.3C930.425 227.1 929.425 222.8 927.425 220.4C925.625 217.8 922.425 216.5 917.825 216.5C916.225 216.5 914.725 216.6 913.325 216.8C911.925 217 911.025 217.2 910.625 217.4L912.425 199.7C924.025 198.3 935.625 196.5 947.225 194.3C959.025 192.1 966.625 190.6 970.025 189.8L972.725 194.9C970.725 199.3 969.025 211.2 967.625 230.6C966.425 250 965.825 273.2 965.825 300.2C965.825 305 966.525 308.4 967.925 310.4C969.325 312.4 971.625 313.4 974.825 313.4C976.625 313.4 978.325 313.3 979.925 313.1C981.725 312.9 982.925 312.8 983.525 312.8L984.425 314L981.425 332.9C979.025 332.7 974.625 332.5 968.225 332.3C961.825 332.1 955.125 332 948.125 332C941.925 332 934.825 332.4 926.825 333.2C918.825 334.2 913.625 334.9 911.225 335.3L913.325 316.1ZM1074.72 245.3C1074.72 236.7 1072.42 230.1 1067.82 225.5C1063.42 220.7 1057.22 218.3 1049.22 218.3C1044.22 218.3 1038.32 219.7 1031.52 222.5C1024.92 225.1 1019.02 228.4 1013.82 232.4L1011.42 230.9L1005.72 212.9C1017.52 206.3 1028.72 200.8 1039.32 196.4C1049.92 192 1057.22 189.8 1061.22 189.8C1077.02 189.8 1089.32 193.4 1098.12 200.6C1107.12 207.8 1111.62 217.9 1111.62 230.9C1111.62 235.1 1110.72 244.2 1108.92 258.2C1106.72 277.6 1105.62 289 1105.62 292.4C1105.62 296.2 1106.52 299.2 1108.32 301.4C1110.32 303.4 1112.92 304.4 1116.12 304.4C1120.32 304.4 1125.12 302.7 1130.52 299.3L1135.02 305.6C1131.02 313 1126.22 319.6 1120.62 325.4C1115.22 331 1110.32 334.4 1105.92 335.6C1096.92 335.6 1089.82 333.7 1084.62 329.9C1079.62 325.9 1076.62 320.1 1075.62 312.5L1073.52 311.6C1066.52 318.6 1060.02 324.2 1054.02 328.4C1048.02 332.4 1043.42 334.4 1040.22 334.4C1032.62 334.4 1025.62 332.5 1019.22 328.7C1013.02 324.9 1008.12 319.7 1004.52 313.1C1000.92 306.3 999.116 298.8 999.116 290.6C999.116 284.2 1000.72 278.8 1003.92 274.4C1007.12 269.8 1011.32 266.9 1016.52 265.7L1074.42 252.2L1074.72 245.3ZM1042.32 277.4C1037.52 278.8 1035.12 282 1035.12 287C1035.12 292.8 1036.62 297.3 1039.62 300.5C1042.82 303.7 1047.22 305.3 1052.82 305.3C1055.62 305.3 1058.82 304.6 1062.42 303.2C1066.02 301.6 1069.52 299.5 1072.92 296.9L1073.52 268.7L1042.32 277.4ZM1141.17 315.8C1147.77 314.4 1151.87 312.1 1153.47 308.9C1155.27 305.7 1156.17 300 1156.17 291.8V152.9C1156.17 147.9 1155.47 144.1 1154.07 141.5C1152.67 138.9 1150.57 137.3 1147.77 136.7C1146.97 136.5 1145.67 136.4 1143.87 136.4L1135.77 136.7C1135.57 135.9 1135.47 134.6 1135.47 132.8L1136.97 119C1148.37 117.6 1160.57 115.8 1173.57 113.6C1186.57 111.4 1194.97 110 1198.77 109.4L1200.87 115.1C1198.27 118.3 1196.07 137.5 1194.27 172.7C1192.47 207.7 1191.57 250.2 1191.57 300.2C1191.57 305.2 1192.17 308.7 1193.37 310.7C1194.77 312.7 1197.07 313.7 1200.27 313.7C1202.07 313.7 1203.97 313.6 1205.97 313.4C1207.97 313.2 1209.37 313.1 1210.17 313.1L1211.07 314.9L1207.77 332.9C1205.37 332.7 1200.77 332.5 1193.97 332.3C1187.17 332.1 1180.27 332 1173.27 332C1167.07 332 1160.37 332.3 1153.17 332.9C1145.97 333.7 1141.27 334.3 1139.07 334.7L1141.17 315.8Z" fill="white"/>
<path d="M21.25 175.5C21.25 166.5 18.1667 162 12 162C10.6667 162 9.5 162.083 8.5 162.25C7.5 162.417 6.83333 162.583 6.5 162.75L5.75 162L6.75 153.75C13.9167 152.75 21.3333 151.417 29 149.75C36.6667 148.083 41.5833 147 43.75 146.5L45.25 149.75C44.0833 151.417 43 159.917 42 175.25C41 190.417 40.1667 209.833 39.5 233.5C47 228.167 53.4167 223.917 58.75 220.75C64.25 217.583 67.9167 216 69.75 216C79.0833 216 87.4167 218.25 94.75 222.75C102.083 227.25 107.75 233.583 111.75 241.75C115.917 249.75 118 259 118 269.5C118 281.5 115.167 292.5 109.5 302.5C104 312.5 96.5 320.417 87 326.25C77.5 332.083 67.0833 335 55.75 335C48.75 335 41.5833 334.5 34.25 333.5C27.0833 332.667 23.5 332.167 23.5 332L21.25 330V175.5ZM38.25 316C41.25 317.5 45.0833 318.75 49.75 319.75C54.4167 320.75 58.75 321.25 62.75 321.25C73.9167 321.25 82.6667 317.5 89 310C95.5 302.333 98.75 291.917 98.75 278.75C98.75 270.417 97.25 262.75 94.25 255.75C91.4167 248.75 87.4167 243.25 82.25 239.25C77.25 235.083 71.75 233 65.75 233C62.4167 233 58.1667 234.333 53 237C47.8333 239.5 43.1667 242.667 39 246.5L38.25 316ZM184.453 335C174.953 335 166.536 332.667 159.203 328C151.87 323.333 146.12 316.833 141.953 308.5C137.953 300 135.953 290.333 135.953 279.5C135.953 267.833 138.453 257.167 143.453 247.5C148.62 237.667 155.62 230 164.453 224.5C173.286 218.833 183.12 216 193.953 216C203.286 216 211.62 218.333 218.953 223C226.453 227.667 232.203 234.25 236.203 242.75C240.37 251.083 242.453 260.667 242.453 271.5C242.453 283.167 239.87 293.917 234.703 303.75C229.703 313.417 222.786 321.083 213.953 326.75C205.12 332.25 195.286 335 184.453 335ZM191.453 322.75C200.786 322.75 208.203 319 213.703 311.5C219.203 303.833 221.953 293.5 221.953 280.5C221.953 270.667 220.453 261.917 217.453 254.25C214.453 246.417 210.203 240.333 204.703 236C199.37 231.667 193.286 229.5 186.453 229.5C177.12 229.5 169.703 233.333 164.203 241C158.703 248.667 155.953 259.083 155.953 272.25C155.953 282.083 157.453 290.833 160.453 298.5C163.453 306.167 167.62 312.167 172.953 316.5C178.286 320.667 184.453 322.75 191.453 322.75ZM308.965 335C299.465 335 291.048 332.667 283.715 328C276.382 323.333 270.632 316.833 266.465 308.5C262.465 300 260.465 290.333 260.465 279.5C260.465 267.833 262.965 257.167 267.965 247.5C273.132 237.667 280.132 230 288.965 224.5C297.798 218.833 307.632 216 318.465 216C327.798 216 336.132 218.333 343.465 223C350.965 227.667 356.715 234.25 360.715 242.75C364.882 251.083 366.965 260.667 366.965 271.5C366.965 283.167 364.382 293.917 359.215 303.75C354.215 313.417 347.298 321.083 338.465 326.75C329.632 332.25 319.798 335 308.965 335ZM315.965 322.75C325.298 322.75 332.715 319 338.215 311.5C343.715 303.833 346.465 293.5 346.465 280.5C346.465 270.667 344.965 261.917 341.965 254.25C338.965 246.417 334.715 240.333 329.215 236C323.882 231.667 317.798 229.5 310.965 229.5C301.632 229.5 294.215 233.333 288.715 241C283.215 248.667 280.465 259.083 280.465 272.25C280.465 282.083 281.965 290.833 284.965 298.5C287.965 306.167 292.132 312.167 297.465 316.5C302.798 320.667 308.965 322.75 315.965 322.75ZM384.477 323.25C388.81 322.583 391.893 321.417 393.727 319.75C395.56 317.917 396.643 315.583 396.977 312.75C397.477 309.917 397.727 305.083 397.727 298.25V175.5C397.727 166.5 394.643 162 388.477 162C387.31 162 386.06 162.167 384.727 162.5C383.393 162.667 382.56 162.833 382.227 163C382.227 162 382.393 160.5 382.727 158.5L383.227 153.75C390.393 152.75 397.81 151.417 405.477 149.75C413.143 148.083 418.06 147 420.227 146.5L421.727 149.75C419.893 152.583 418.227 170.25 416.727 202.75C415.393 235.25 414.727 270.167 414.727 307.5C414.727 312.667 415.393 316.333 416.727 318.5C418.06 320.5 420.393 321.5 423.727 321.5C425.56 321.5 427.31 321.417 428.977 321.25C430.643 321.083 431.81 321 432.477 321L432.977 322L430.727 332.75C429.227 332.583 426.31 332.417 421.977 332.25C417.643 332.083 412.977 332 407.977 332C403.643 332 398.81 332.167 393.477 332.5C388.31 333 384.893 333.333 383.227 333.5L384.477 323.25ZM451.977 241C454.31 238.833 455.893 237.167 456.727 236C457.56 234.667 457.977 233.417 457.977 232.25C457.977 230.417 456.893 229.083 454.727 228.25C452.56 227.417 449.06 227 444.227 227L443.477 225.75L445.727 218.5C447.393 218.5 450.56 218.583 455.227 218.75C460.06 218.917 465.06 219 470.227 219C474.227 219 478.81 218.833 483.977 218.5C489.143 218 492.477 217.667 493.977 217.5L494.727 218.75L492.727 226.5C485.893 228.5 478.977 232.333 471.977 238C465.143 243.667 456.893 251.333 447.227 261C447.227 261 444.643 263.583 439.477 268.75L465.727 302.5C471.393 309.833 476.56 315.083 481.227 318.25C485.893 321.417 490.81 323 495.977 323L496.727 324.25L495.227 331.5C493.727 332 490.643 332.75 485.977 333.75C481.31 334.917 478.227 335.5 476.727 335.5C474.227 335.5 471.31 334.667 467.977 333C465.31 331.667 462.643 329.583 459.977 326.75C457.477 323.917 454.31 319.75 450.477 314.25L420.977 272.5L421.477 269L451.977 241Z" fill="white"/>
</svg>
